<mxfile host="localhost" modified="2020-05-19T08:23:25.070Z" agent="5.0 (Windows NT 10.0; Win64; x64) AppleWebKit/537.36 (KHTML, like Gecko) Code/1.45.1 Chrome/78.0.3904.130 Electron/7.2.4 Safari/537.36" etag="oCztiImYWvUJ5mFbILzo" version="13.0.9">
    <diagram id="M7cJFI4taK7x0jcs0aA2" name="第 1 页">
        <mxGraphModel dx="1550" dy="1192" grid="1" gridSize="10" guides="1" tooltips="1" connect="1" arrows="1" fold="1" page="0" pageScale="1" pageWidth="827" pageHeight="1169" math="0" shadow="0">
            <root>
                <mxCell id="0"/>
                <mxCell id="1" parent="0"/>
                <mxCell id="5nIxu2jlq3mdeqeMetxE-2" value="" style="rounded=0;whiteSpace=wrap;html=1;fillColor=#fff2cc;strokeColor=#d6b656;" parent="1" vertex="1">
                    <mxGeometry x="-170" y="-20" width="600" height="460" as="geometry"/>
                </mxCell>
                <mxCell id="ueJsvidWL8xctAJfz9EX-1" value="&lt;font style=&quot;font-size: 15px&quot;&gt;&lt;br&gt;&lt;br&gt;&lt;br&gt;&lt;br&gt;&lt;br&gt;&lt;br&gt;&lt;br&gt;&lt;br&gt;&lt;br&gt;&lt;br&gt;&lt;br&gt;&lt;br&gt;&lt;br&gt;&lt;br&gt;&lt;br&gt;&lt;br&gt;&lt;br&gt;&lt;br&gt;&lt;br&gt;Node1&lt;/font&gt;" style="rounded=1;whiteSpace=wrap;html=1;fillColor=#d5e8d4;strokeColor=#82b366;" parent="1" vertex="1">
                    <mxGeometry x="-90" y="20" width="200" height="380" as="geometry"/>
                </mxCell>
                <mxCell id="ueJsvidWL8xctAJfz9EX-4" value="&lt;font&gt;&lt;br&gt;&lt;br&gt;&lt;br&gt;&lt;br&gt;&lt;br&gt;&lt;br&gt;&lt;br&gt;&lt;br&gt;&lt;br&gt;&lt;br&gt;&lt;br&gt;&lt;br&gt;&lt;br&gt;&lt;br&gt;&lt;br&gt;&lt;br&gt;&lt;br&gt;&lt;br&gt;&lt;font size=&quot;1&quot;&gt;&lt;br&gt;&lt;br&gt;&lt;br&gt;&lt;br&gt;&lt;br&gt;&lt;br&gt;&lt;/font&gt;&lt;span style=&quot;font-size: 15px&quot;&gt;Node2&lt;/span&gt;&lt;/font&gt;" style="rounded=1;whiteSpace=wrap;html=1;fillColor=#d5e8d4;strokeColor=#82b366;" parent="1" vertex="1">
                    <mxGeometry x="154" y="20" width="196" height="380" as="geometry"/>
                </mxCell>
                <mxCell id="ueJsvidWL8xctAJfz9EX-5" value="&lt;span style=&quot;color: rgb(77, 77, 77); font-family: &amp;quot;microsoft yahei&amp;quot;, &amp;quot;sf pro display&amp;quot;, roboto, noto, arial, &amp;quot;pingfang sc&amp;quot;, sans-serif; font-size: 16px;&quot;&gt;shard1&lt;/span&gt;" style="rounded=0;whiteSpace=wrap;html=1;fillColor=#fff2cc;strokeColor=#d6b656;labelBackgroundColor=none;" parent="1" vertex="1">
                    <mxGeometry x="-50" y="40" width="110" height="50" as="geometry"/>
                </mxCell>
                <mxCell id="ueJsvidWL8xctAJfz9EX-6" value="&lt;span style=&quot;color: rgb(77, 77, 77); font-family: &amp;quot;microsoft yahei&amp;quot;, &amp;quot;sf pro display&amp;quot;, roboto, noto, arial, &amp;quot;pingfang sc&amp;quot;, sans-serif; font-size: 16px;&quot;&gt;shard2&lt;/span&gt;" style="rounded=0;whiteSpace=wrap;html=1;fillColor=#fff2cc;strokeColor=#d6b656;labelBackgroundColor=none;" parent="1" vertex="1">
                    <mxGeometry x="-50" y="100" width="110" height="50" as="geometry"/>
                </mxCell>
                <mxCell id="ueJsvidWL8xctAJfz9EX-7" value="&lt;span style=&quot;color: rgb(77, 77, 77); font-family: &amp;quot;microsoft yahei&amp;quot;, &amp;quot;sf pro display&amp;quot;, roboto, noto, arial, &amp;quot;pingfang sc&amp;quot;, sans-serif; font-size: 16px;&quot;&gt;shard3&lt;/span&gt;" style="rounded=0;whiteSpace=wrap;html=1;fillColor=#fff2cc;strokeColor=#d6b656;labelBackgroundColor=none;" parent="1" vertex="1">
                    <mxGeometry x="-50" y="160" width="110" height="50" as="geometry"/>
                </mxCell>
                <mxCell id="ueJsvidWL8xctAJfz9EX-8" value="&lt;span style=&quot;color: rgb(77, 77, 77); font-family: &amp;quot;microsoft yahei&amp;quot;, &amp;quot;sf pro display&amp;quot;, roboto, noto, arial, &amp;quot;pingfang sc&amp;quot;, sans-serif; font-size: 16px;&quot;&gt;shard4&lt;/span&gt;" style="rounded=0;whiteSpace=wrap;html=1;fillColor=#fff2cc;strokeColor=#d6b656;labelBackgroundColor=none;" parent="1" vertex="1">
                    <mxGeometry x="197" y="235" width="110" height="50" as="geometry"/>
                </mxCell>
                <mxCell id="ueJsvidWL8xctAJfz9EX-9" value="&lt;span style=&quot;color: rgb(77, 77, 77); font-family: &amp;quot;microsoft yahei&amp;quot;, &amp;quot;sf pro display&amp;quot;, roboto, noto, arial, &amp;quot;pingfang sc&amp;quot;, sans-serif; font-size: 16px;&quot;&gt;shard5&lt;/span&gt;" style="rounded=0;whiteSpace=wrap;html=1;fillColor=#fff2cc;strokeColor=#d6b656;labelBackgroundColor=none;" parent="1" vertex="1">
                    <mxGeometry x="197" y="300" width="110" height="50" as="geometry"/>
                </mxCell>
                <mxCell id="ueJsvidWL8xctAJfz9EX-10" value="&lt;span style=&quot;font-family: &amp;quot;microsoft yahei&amp;quot;, &amp;quot;sf pro display&amp;quot;, roboto, noto, arial, &amp;quot;pingfang sc&amp;quot;, sans-serif; font-size: 16px;&quot;&gt;replica4&lt;/span&gt;" style="rounded=1;whiteSpace=wrap;html=1;labelBackgroundColor=none;fillColor=#e1d5e7;strokeColor=#9673a6;" parent="1" vertex="1">
                    <mxGeometry x="-50" y="235" width="110" height="50" as="geometry"/>
                </mxCell>
                <mxCell id="ueJsvidWL8xctAJfz9EX-11" value="&lt;span style=&quot;font-family: &amp;quot;microsoft yahei&amp;quot;, &amp;quot;sf pro display&amp;quot;, roboto, noto, arial, &amp;quot;pingfang sc&amp;quot;, sans-serif; font-size: 16px;&quot;&gt;replica5&lt;/span&gt;" style="rounded=1;whiteSpace=wrap;html=1;labelBackgroundColor=none;fillColor=#e1d5e7;strokeColor=#9673a6;" parent="1" vertex="1">
                    <mxGeometry x="-50" y="300" width="110" height="50" as="geometry"/>
                </mxCell>
                <mxCell id="Gi1swOdYqzUkQiG2LJOk-1" value="&lt;span style=&quot;font-family: &amp;quot;microsoft yahei&amp;quot;, &amp;quot;sf pro display&amp;quot;, roboto, noto, arial, &amp;quot;pingfang sc&amp;quot;, sans-serif; font-size: 16px;&quot;&gt;replica1&lt;/span&gt;" style="rounded=1;whiteSpace=wrap;html=1;labelBackgroundColor=none;fillColor=#e1d5e7;strokeColor=#9673a6;" parent="1" vertex="1">
                    <mxGeometry x="197" y="40" width="110" height="50" as="geometry"/>
                </mxCell>
                <mxCell id="Gi1swOdYqzUkQiG2LJOk-2" value="&lt;span style=&quot;font-family: &amp;quot;microsoft yahei&amp;quot;, &amp;quot;sf pro display&amp;quot;, roboto, noto, arial, &amp;quot;pingfang sc&amp;quot;, sans-serif; font-size: 16px;&quot;&gt;replica2&lt;/span&gt;" style="rounded=1;whiteSpace=wrap;html=1;labelBackgroundColor=none;fillColor=#e1d5e7;strokeColor=#9673a6;" parent="1" vertex="1">
                    <mxGeometry x="197" y="100" width="110" height="50" as="geometry"/>
                </mxCell>
                <mxCell id="Gi1swOdYqzUkQiG2LJOk-3" value="&lt;span style=&quot;font-family: &amp;quot;microsoft yahei&amp;quot;, &amp;quot;sf pro display&amp;quot;, roboto, noto, arial, &amp;quot;pingfang sc&amp;quot;, sans-serif; font-size: 16px;&quot;&gt;replica3&lt;/span&gt;" style="rounded=1;whiteSpace=wrap;html=1;labelBackgroundColor=none;fillColor=#e1d5e7;strokeColor=#9673a6;" parent="1" vertex="1">
                    <mxGeometry x="197" y="160" width="110" height="50" as="geometry"/>
                </mxCell>
                <mxCell id="2" value="Text" style="text;html=1;align=center;verticalAlign=middle;resizable=0;points=[];autosize=1;" parent="1" vertex="1">
                    <mxGeometry x="757" y="11" width="40" height="20" as="geometry"/>
                </mxCell>
            </root>
        </mxGraphModel>
    </diagram>
</mxfile>